<svg xmlns="http://www.w3.org/2000/svg" width="945" height="116" viewBox="0 0 945 116">
  <defs>
    <style>
      .cls-1 {
        fill: #232323;
        fill-rule: evenodd;
      }
    </style>
  </defs>
  <path id="вывеска" class="cls-1" d="M1432.48,997.118a19.741,19.741,0,0,0-2.17-5.892,24.388,24.388,0,0,0-4.67-5.825,32.121,32.121,0,0,0-7.89-5.23q5.52-4.1,7.36-9a26,26,0,0,0,1.84-9.135,28.836,28.836,0,0,0-.39-4.038,22.8,22.8,0,0,0-1.65-5.5,24.344,24.344,0,0,0-10.32-11.386,41.091,41.091,0,0,0-10.39-4.171,66.11,66.11,0,0,0-14.86-1.919H1281.75v17.742h15.39v47.795a29.215,29.215,0,0,1-.39,4.17,9.275,9.275,0,0,1-2.83,5.03c-1.62,1.63-4.21,3.05-7.76,4.24s-8.57,1.79-15.06,1.79a64.879,64.879,0,0,1-8.75-.6,27.006,27.006,0,0,1-8.02-2.32,15.758,15.758,0,0,1-5.92-4.76,12.648,12.648,0,0,1-2.3-7.82V952.765h15.39V935.023H1116.37v17.741h15.26v61.565h-15.26v8.92h-25.42a2.48,2.48,0,0,0-.19-1.48c-1.21-2.49-3.63-5.29-8.29-4.56-0.35.05-.67,0.08-1,0.12-0.13-.3-0.32-0.66-0.6-1.18a17.389,17.389,0,0,1-2.08-8.68c0.14-2.87,1.6-2.24,1.18-5.67s-0.63-5.383,1.11-5.664,4.52-3.709,5.15-6.577,2.08-10.356,3.13-11.966,0.2-2.31,1.73-4.968,2.16-6.228,8.49-7.837,7.02-.771,7.85-1.819,1.74-.771,1.81-2.66,0.35-2.1-2.09-2.73-3.75-2.239-5.63-2.869-1.66-2.029-3.2-3.149c-1.52-1.12-1.59-.35-2.64-0.98s-2.01-2.379-3.13-2.168a2.744,2.744,0,0,0-2.15,2.308c-0.14,1.12-3.55,5.039-5.84,5.948s-6.95,3.989-9.73,4.2-14.74.559-21.63,2.1-15.08-.63-19.53.839-10.85-1.469-16.06,1.68-4.52,8.677-4.59,10.145,1.46,13.785,0,17.214-0.42,12.733,1.18,11.193c0,0,1.04,11.37.14,14.61s1.25,0.65,1.6,2.47c0.15,0.77.2,1.53,0.38,2.13H984.093v-22.69H965.154v13.77H916.886V952.765h10.851V935.024H886.175v17.741H897.29v61.565H881.771v-13.77H862.832v13.77H814.564V952.765h10.852V935.024H783.852v17.741h11.115v61.565H764.06V952.765h11.05V935.024H733.546v17.741h10.917v61.565H708.3l-16.44-27.009q11.31-3.045,17.361-9.665a23.848,23.848,0,0,0,3.88-25.818,24.115,24.115,0,0,0-6.707-8.539,34.284,34.284,0,0,0-11.509-6.024,54.2,54.2,0,0,0-16.571-2.251H609.524V935H591.111v10.885a67.249,67.249,0,0,0-18.281-7.944,81.2,81.2,0,0,0-21.57-2.78,82.247,82.247,0,0,0-24.529,3.574,62.932,62.932,0,0,0-20.188,10.327,49.465,49.465,0,0,0-13.81,16.484,44.734,44.734,0,0,0,.132,40.318,47.1,47.1,0,0,0,14.2,16.28,64.347,64.347,0,0,0,20.715,10.13,90.037,90.037,0,0,0,25.58,3.51,93.943,93.943,0,0,0,20.255-2.12,78.4,78.4,0,0,0,17.492-5.96v1.19c0,0.27.021,0.95,0.066,2.06a22.212,22.212,0,0,0,.592,3.97,24.13,24.13,0,0,0,1.775,4.96,19.507,19.507,0,0,0,3.485,5.03q5.787,6.09,15.784,6.09h5v-18.93h-5a5.416,5.416,0,0,1-1.316-.13l-0.264-.13a2.179,2.179,0,0,1-1.381-1.46,6.136,6.136,0,0,1-.328-1.72V983.613h-54.45v18.537h36.037v3.04a30.279,30.279,0,0,1-7.365,6.03,47.206,47.206,0,0,1-9.4,4.24,62.672,62.672,0,0,1-10.457,2.44,71.3,71.3,0,0,1-10.39.8,64.42,64.42,0,0,1-18.281-2.45,45.364,45.364,0,0,1-14.27-6.88,32.428,32.428,0,0,1-9.338-10.6,27.9,27.9,0,0,1-3.354-13.57,27.479,27.479,0,0,1,3.223-13.175,32.327,32.327,0,0,1,9.009-10.458,43.328,43.328,0,0,1,13.743-6.885,59.037,59.037,0,0,1,17.427-2.449,59.7,59.7,0,0,1,13.612,1.522A52.234,52.234,0,0,1,577.1,958a37.373,37.373,0,0,1,9.14,6.421,20.092,20.092,0,0,1,5.261,8.076l1.053,3.31h16.966V952.765H633.2v18.668H623.86v17.742H633.2v25.155H617.81v17.74h50.24v-17.74H652.794V989.572H671.6l25.778,42.5H1166.61v-17.74h-15.38V997.118h21.48q3.69-.131,9.62-0.927a52.372,52.372,0,0,0,11.93-3.111,43.161,43.161,0,0,0,11.26-6.487,25.162,25.162,0,0,0,7.91-11.188,25.578,25.578,0,0,0,1.85-9.8,22.343,22.343,0,0,0-.14-2.516c-0.08-.794-0.17-1.543-0.26-2.251q-0.27-1.191-.39-2.118a31.486,31.486,0,0,0-2.36-5.958h14.38v47.525q0,15.24,12.06,23.5,12.045,8.28,34.04,8.28a72.393,72.393,0,0,0,18.58-2.18,41.991,41.991,0,0,0,13.83-6.29,28.229,28.229,0,0,0,8.69-10,28.671,28.671,0,0,0,3.03-13.31V952.765h33.67v61.565h-18.28v17.74h62.27a2.672,2.672,0,0,0,.86-0.13,63.048,63.048,0,0,0,15.25-2.78,41.738,41.738,0,0,0,10.52-5.03,25.84,25.84,0,0,0,6.58-6.29,30.677,30.677,0,0,0,3.55-6.42,24.258,24.258,0,0,0,1.51-5.5,29.985,29.985,0,0,0,.33-3.64A30.441,30.441,0,0,0,1432.48,997.118ZM686.068,970.44q-2.5.6-4.668,0.927a48.165,48.165,0,0,1-5.064.463H652.794V952.765h24.2q0.789,0,3.748.2a34.916,34.916,0,0,1,6.313,1.059,18.965,18.965,0,0,1,5.984,2.648,5.68,5.68,0,0,1,2.631,4.965,6.367,6.367,0,0,1-1.447,4.237,11.94,11.94,0,0,1-3.551,2.846A19.111,19.111,0,0,1,686.068,970.44Zm330.222,21.987c-0.28,1.889.55,3.289-1.11,5.808,0,0-.91-5.178-0.49-7.765a52.933,52.933,0,0,0,.49-6.089S1016.57,990.539,1016.29,992.427Zm4.06,30.813a1.361,1.361,0,0,0,.04-0.3,12.352,12.352,0,0,1-2.36-9.66,27.577,27.577,0,0,1,2.15-7.98c0.9-2.52,1.53-3.99,2.36-4.82s-1.52,4.05-.83,4.68,3.89,7.63,4.1,8.68,2.23,4.62,2.3,6.65,1.11,1.61,2.01,2.38a1.742,1.742,0,0,1,.29.38Zm50.26-8.56a8.715,8.715,0,0,0-.17,1.56,10.222,10.222,0,0,0-4.71.85,33.723,33.723,0,0,0-7.79,4.84,1.793,1.793,0,0,0-.68,1.32h-21.49c-0.96-.73-1.68-0.16-1.96-1.22-0.35-1.33-.91-0.84-1.39-2.31s-6.47-8.96-2.02-18.55l0.7,0.07a0.684,0.684,0,0,1,.83-0.35c0.63,0.14.28,2.31,1.11,1.96s0.35-2.51,1.6-3,4.03-.839,5.01-2.659a1.373,1.373,0,0,0,1.67,0,27.7,27.7,0,0,1,5.07,1.75c2.09,1.049,2.57-.211,3.69-0.98s7.78-2.1,9.94-2.1,3.13-1.748,5.98-2.1,3.96,0.421,3.89,2.239,0.28,3.989,0,4.894,0.9,3.99.7,5.53,0.06,5.67-.84,6.79S1070.77,1013.98,1070.61,1014.68Zm5.1,2.46a9.749,9.749,0,0,0-1.02-1.48c-1.46-1.89-.84-3.99-1.39-6.58s0.76-3.57,1.18-5.32a5.571,5.571,0,0,1,1.35,3.22c-0.03,1.68-.59,7.56.39,8.61s1.11-.49,1.39,1.4a2.125,2.125,0,0,0,.1.4C1077.01,1017.33,1076.34,1017.25,1075.71,1017.14Zm116.62-43.986a21.692,21.692,0,0,1-7.43,4.171,35.85,35.85,0,0,1-8.55,1.721q-4.35.332-6.58,0.331h-18.54V952.765h19.86c0.87,0,2.56.089,5.06,0.265a45.941,45.941,0,0,1,7.76,1.258,26.975,26.975,0,0,1,7.43,3.045,8.109,8.109,0,0,1,4.08,5.627c0.08,0.443.15,0.86,0.19,1.258A10.572,10.572,0,0,1,1192.33,973.154ZM1370,952.765h20.13a40.355,40.355,0,0,1,4.99.331,25.808,25.808,0,0,1,5,1.125,17.112,17.112,0,0,1,4.14,1.987,7.038,7.038,0,0,1,2.57,2.912,2.97,2.97,0,0,1,.2.728,0.491,0.491,0,0,0,.19.464h-0.13l0.13,0.132v0.662a1.921,1.921,0,0,0,.07.53,2.393,2.393,0,0,1,.06.53v0.727a5.338,5.338,0,0,1-.13.993,7.136,7.136,0,0,1-3.15,4.171,23.464,23.464,0,0,1-5.79,2.714,38.568,38.568,0,0,1-6.71,1.523,44.068,44.068,0,0,1-5.78.463H1370V952.765Zm41.63,54.685a13.736,13.736,0,0,1-4.47,3.24,29.457,29.457,0,0,1-5.79,1.98q-3.09.735-5.79,1.13a42.329,42.329,0,0,1-4.47.46c-1.18.05-1.82,0.07-1.91,0.07H1370V990.5h16.71c0.17,0,.96.023,2.36,0.067s3.09,0.178,5.07.4a63.519,63.519,0,0,1,6.31,1.059,28.157,28.157,0,0,1,6.25,2.118,15.9,15.9,0,0,1,4.8,3.443,7.207,7.207,0,0,1,1.9,5.1A6.944,6.944,0,0,1,1411.63,1007.45Z" transform="translate(-488 -935)"/>
</svg>
