<svg xmlns="http://www.w3.org/2000/svg" width="50" height="42" viewBox="0 0 50 42">
  <defs>
    <style>
      .cls-1 {
        fill: #fff;
        fill-rule: evenodd;
      }
    </style>
  </defs>
  <path id="cook" class="cls-1" d="M1413.14,479a10.7,10.7,0,0,0-7.08,2.652,10.777,10.777,0,0,0-14.16,0,10.71,10.71,0,0,0-7.09-2.652,10.887,10.887,0,0,0-1.58,21.652V520a0.993,0.993,0,0,0,.99,1h29.51a1,1,0,0,0,1-1V500.652A10.888,10.888,0,0,0,1413.14,479Zm0.53,19.752a1,1,0,0,0-.93,1V519h-27.52V499.75a1,1,0,0,0-.94-1,8.885,8.885,0,0,1,.53-17.752,8.769,8.769,0,0,1,6.37,2.723,1.016,1.016,0,0,0,1.43,0,8.8,8.8,0,0,1,12.73,0,1.029,1.029,0,0,0,1.44,0,8.73,8.73,0,0,1,6.36-2.723A8.885,8.885,0,0,1,1413.67,498.752Z" transform="translate(-1373.97 -479)"/>
</svg>
