<svg xmlns="http://www.w3.org/2000/svg" width="49.032" height="42" viewBox="0 0 49.032 42">
  <defs>
    <style>
      .cls-1 {
        fill: #fff;
        fill-rule: evenodd;
      }
    </style>
  </defs>
  <path id="diamond" class="cls-1" d="M545.932,491.864s0-.008,0-0.013c0-.023-0.012-0.043-0.013-0.067a1.017,1.017,0,0,0-.056-0.278,0.961,0.961,0,0,0-.065-0.128,0.994,0.994,0,0,0-.064-0.126L536.918,479.4c-0.006-.007-0.015-0.01-0.021-0.018a0.978,0.978,0,0,0-.329-0.277,0.965,0.965,0,0,0-.416-0.1,0.229,0.229,0,0,0-.028-0.007H506.73c-0.009,0-.018.006-0.027,0.006a0.985,0.985,0,0,0-.417.1,1,1,0,0,0-.329.277c-0.006.008-.015,0.011-0.021,0.018l-8.818,11.852a1,1,0,0,0-.065.126,0.85,0.85,0,0,0-.064.128,0.948,0.948,0,0,0-.056.278c0,0.024-.014.044-0.014,0.067,0,0,0,.009,0,0.013a0.985,0.985,0,0,0,.072.358,0.877,0.877,0,0,0,.057.1,0.962,0.962,0,0,0,.1.175l23.515,28.148c0.015,0.018.037,0.025,0.053,0.041l0.013,0.013a0.994,0.994,0,0,0,.079.08,0.9,0.9,0,0,0,.145.089,0.874,0.874,0,0,0,.1.05c0.025,0.01.046,0.026,0.072,0.035h0a0.955,0.955,0,0,0,.278.044c0.006,0,.013,0,0.02,0h0c0.007,0,.013,0,0.02,0a0.967,0.967,0,0,0,.279-0.044h0c0.026-.009.047-0.025,0.072-0.035a0.99,0.99,0,0,0,.1-0.05,0.931,0.931,0,0,0,.144-0.089,1.006,1.006,0,0,0,.08-0.08l0.012-.013c0.016-.016.038-0.023,0.053-0.041L545.7,492.5a0.957,0.957,0,0,0,.1-0.175,0.884,0.884,0,0,0,.058-0.1A0.984,0.984,0,0,0,545.932,491.864Zm-39.372-9.97L511,490.851H499.9Zm22.332,10.957-7.465,23.828-7.465-23.828h14.93Zm-14.3-2,6.834-9.185,6.834,9.185H514.593ZM523.411,481h11.108l-4.443,8.957Zm-10.633,8.957L508.335,481h11.108Zm-0.9,2.894,7.1,22.672-18.94-22.672h11.838Zm19.09,0H542.81l-18.94,22.672Zm0.879-2,4.443-8.957,6.665,8.957H531.851Z" transform="translate(-496.906 -479)"/>
</svg>
