<svg xmlns="http://www.w3.org/2000/svg" viewBox="0 0 57.98 42"><defs><style>.cls-1{fill:#fff;}</style></defs><title>Ресурс 1</title><g id="Слой_2" data-name="Слой 2"><g id="Layer_1" data-name="Layer 1"><path class="cls-1" d="M57.86,15.85a10.87,10.87,0,0,0-2.64-5.42l0-.05,0,0a13.66,13.66,0,0,0-1.73-1.64C47.61,4.13,38.25,1.66,29.54.61h0A84.28,84.28,0,0,0,19.66,0C7,0,0,6.45,0,18.17c0,.09,0,.17,0,.26s0,0,0,.06v9.08a12.38,12.38,0,0,0,4.26,9.48C8.21,40.56,14.1,42,19,42a23.21,23.21,0,0,0,2.68-.15A46.92,46.92,0,0,0,33,38.58C37.92,36.72,43,34.8,49.15,34.8a8.91,8.91,0,0,0,6.6-2.58A8,8,0,0,0,58,26.51a.93.93,0,0,0,0-.17v-10A1,1,0,0,0,57.86,15.85Zm-3.49-3.25a7.38,7.38,0,0,1,1.26,6.69c-.89,2.57-3.31,4.1-6.48,4.1A32.73,32.73,0,0,0,43,24Zm-1.31-1.52L39.25,24.9c-2.41.7-4.69,1.56-6.93,2.41S28.08,28.92,26,29.52l21.9-21.9a24.67,24.67,0,0,1,4.31,2.66A11.86,11.86,0,0,1,53.06,11.09ZM19.72,15.19a3.44,3.44,0,0,1-3.58,3.28,3.44,3.44,0,0,1-3.58-3.28,3.44,3.44,0,0,1,3.58-3.28A3.44,3.44,0,0,1,19.72,15.19ZM13,19.54a5.77,5.77,0,0,0,3.15.93,5.44,5.44,0,0,0,5.58-5.28A5.07,5.07,0,0,0,20.56,12l9.3-9.3c2.47.32,4.95.74,7.35,1.3L11.71,29.48a17.18,17.18,0,0,1-5.68-3Zm26.49-15a49.29,49.29,0,0,1,6.46,2.2l-23.6,23.6-.85.12a24.1,24.1,0,0,1-7.54-.39ZM27.32,2.39,19,10.68a5.77,5.77,0,0,0-2.88-.77,5.44,5.44,0,0,0-5.58,5.28,5.05,5.05,0,0,0,1,3l-7,7A10.11,10.11,0,0,1,2,19L19,2l.62,0C22.09,2,24.68,2.13,27.32,2.39ZM16,2.22,2.08,16.15C2.74,8,7.51,3.24,16,2.22ZM56,26.38a6,6,0,0,1-1.64,4.46,7,7,0,0,1-5.16,2c-6.55,0-11.78,2-16.83,3.92a45.46,45.46,0,0,1-10.83,3.15c-4.87.57-11.67-.54-15.89-4.3a10.3,10.3,0,0,1-3.59-8V25a13,13,0,0,0,2.26,2.64C8.21,31.16,14.1,32.6,19,32.6a23.2,23.2,0,0,0,2.68-.15A46.9,46.9,0,0,0,33,29.18C37.92,27.32,43,25.4,49.15,25.4A9,9,0,0,0,56,22.55v3.59A1,1,0,0,0,56,26.38Z"/></g></g></svg>