<svg xmlns="http://www.w3.org/2000/svg" width="66.03" height="42" viewBox="0 0 66.03 42">
  <defs>
    <style>
      .cls-1 {
        fill: #fff;
        fill-rule: evenodd;
      }
    </style>
  </defs>
  <path id="money_1" data-name="money 1" class="cls-1" d="M1131.86,486.163h-56.88a1,1,0,0,0-1,1V520a1,1,0,0,0,1,1h56.88a0.993,0.993,0,0,0,.99-1V487.163A0.993,0.993,0,0,0,1131.86,486.163Zm-55.89,8.665a7.724,7.724,0,0,0,6.64-6.665h41.61a7.734,7.734,0,0,0,6.64,6.665v17.506a7.733,7.733,0,0,0-6.64,6.666h-41.61a7.723,7.723,0,0,0-6.64-6.666V494.828Zm54.89-2.021a5.723,5.723,0,0,1-4.62-4.644h4.62v4.644Zm-50.26-4.644a5.734,5.734,0,0,1-4.63,4.644v-4.644h4.63Zm-4.63,26.192A5.733,5.733,0,0,1,1080.6,519h-4.63v-4.645ZM1126.24,519a5.723,5.723,0,0,1,4.62-4.645V519h-4.62Zm-23.76-7.96v1.229a1,1,0,1,0,1.99,0v-1.135c2.08-.257,4.52-1.553,4.52-4.094,0-2.838-2.71-3.721-4.52-4.3V497.71a6.19,6.19,0,0,1,2.66,1.061,0.994,0.994,0,0,0,1.4-.131,1.007,1.007,0,0,0-.13-1.408,7.976,7.976,0,0,0-3.93-1.545v-0.793a1,1,0,1,0-1.99,0v0.812a4.328,4.328,0,0,0-4.05,4.338c0,2.358,2.37,3.509,4.05,4.128v4.822a9.507,9.507,0,0,1-3.03-1.44,0.984,0.984,0,0,0-1.39.163,1,1,0,0,0,.16,1.405A11.294,11.294,0,0,0,1102.48,511.04Zm4.52-4c0,1.222-1.39,1.86-2.53,2.064v-4.26C1105.98,505.363,1107,505.9,1107,507.04Zm-6.58-7a2.289,2.289,0,0,1,2.06-2.313v4.275C1101.36,501.511,1100.42,500.878,1100.42,500.044ZM1138.99,479h-56.88a1,1,0,0,0,0,2H1138v31.837a1,1,0,1,0,1.99,0V480A1,1,0,0,0,1138.99,479Z" transform="translate(-1073.97 -479)"/>
</svg>
