<svg id="Слой_1" data-name="Слой 1" xmlns="http://www.w3.org/2000/svg" viewBox="0 0 305.1 352.3"><defs><style>.cls-1,.cls-2{fill:#e5e5e5;}.cls-2{fill-rule:evenodd;}</style></defs><title>logo</title><polygon class="cls-1" points="303.18 263.11 302.21 261.45 152.55 347.86 3.85 262 3.85 90.3 152.55 4.44 301.25 90.3 301.25 263.11 303.18 263.11 302.21 261.45 303.18 263.11 305.1 263.11 305.1 88.08 152.55 0 0 88.08 0 264.22 152.55 352.3 305.1 264.22 305.1 263.11 303.18 263.11 303.18 263.11"/><polygon class="cls-1" points="295.65 258.76 295.17 257.93 152.55 340.27 10.42 258.21 10.42 94.09 152.55 12.03 294.68 94.09 294.68 258.76 295.65 258.76 295.17 257.93 295.65 258.76 296.61 258.76 296.61 92.98 152.55 9.81 8.49 92.98 8.49 259.32 152.55 342.49 296.61 259.32 296.61 258.76 295.65 258.76 295.65 258.76"/><polygon class="cls-1" points="168 30.79 137.1 30.79 152.55 20.69 168 30.79 168 30.79"/><polygon class="cls-1" points="152.55 332.63 137.1 322.53 168 322.53 152.55 332.63 152.55 332.63"/><path class="cls-1" d="M763.37,559.45H746.13a.87.87,0,0,1-.46-.14,2,2,0,0,1-.71-.87,3.7,3.7,0,0,1-.33-1.56,3.44,3.44,0,0,1,.55-1.94,1.69,1.69,0,0,1,.49-.48.87.87,0,0,1,.46-.14h17.23V552.4H746.13a2.8,2.8,0,0,0-1.46.42,3.88,3.88,0,0,0-1.45,1.69,5.6,5.6,0,0,0-.51,2.38,5.34,5.34,0,0,0,.89,3,3.58,3.58,0,0,0,1.07,1,2.81,2.81,0,0,0,1.46.42h17.23v-1.92Z" transform="translate(-567 -274)"/><polygon class="cls-1" points="127.28 283.85 177.37 283.85 177.37 281.93 127.28 281.93 127.28 283.85 127.28 283.85"/><path class="cls-1" d="M677.63,558a1.08,1.08,0,1,1,1.08-1.08,1.08,1.08,0,0,1-1.08,1.08Zm-.18-3.79a2.71,2.71,0,1,0,0,5.41h19v-5.41Z" transform="translate(-567 -274)"/><polygon class="cls-1" points="126.74 65.88 176.84 65.88 176.84 63.96 126.74 63.96 126.74 65.88 126.74 65.88"/><path class="cls-1" d="M759.4,338.92a1.08,1.08,0,1,1,1.08,1.08,1.08,1.08,0,0,1-1.08-1.08Zm-17.69-2.71v5.41h19a2.71,2.71,0,1,0,0-5.41Z" transform="translate(-567 -274)"/><path class="cls-1" d="M689.38,335.36h-10.7a1,1,0,1,1,0-1.92h10.7a1,1,0,1,1,0,1.92Zm0,4.39h-10.7a1,1,0,1,1,0-1.92h10.7a1,1,0,1,1,0,1.92Zm0,4.39h-10.7a1,1,0,1,1,0-1.92h10.7a1,1,0,1,1,0,1.92Zm.18-13.27H679.25c-2.39,0-4.33,2.83-4.33,6.32v3.48c0,3.49,1.94,6.32,4.33,6.32h10.31c2.39,0,4.33-2.83,4.33-6.32v-3.48c0-3.49-1.94-6.32-4.33-6.32Z" transform="translate(-567 -274)"/><path class="cls-1" d="M648.73,450.13a2.39,2.39,0,0,1-.56-.06l-.11-.06a.93.93,0,0,1-.59-.62,2.57,2.57,0,0,1-.14-.73V429.32H624v7.89h15.45v1.3a13,13,0,0,1-3.16,2.57,20.06,20.06,0,0,1-4,1.8,27.2,27.2,0,0,1-4.48,1,30.76,30.76,0,0,1-4.45.34,27.71,27.71,0,0,1-7.84-1,19.44,19.44,0,0,1-6.12-2.93,13.83,13.83,0,0,1-4-4.51,11.82,11.82,0,0,1-1.44-5.78,11.64,11.64,0,0,1,1.38-5.61,13.8,13.8,0,0,1,3.86-4.45A18.61,18.61,0,0,1,615,417a25.45,25.45,0,0,1,7.47-1,25.73,25.73,0,0,1,5.83.65,22.48,22.48,0,0,1,5.07,1.8,16,16,0,0,1,3.92,2.73,8.55,8.55,0,0,1,2.25,3.44L640,426h7.27V409.48h-7.89v3.78a28.9,28.9,0,0,0-7.84-3.38,35,35,0,0,0-9.24-1.18,35.46,35.46,0,0,0-10.51,1.52,27,27,0,0,0-8.65,4.4,21.08,21.08,0,0,0-5.92,7,18.93,18.93,0,0,0,.06,17.17,20.06,20.06,0,0,0,6.09,6.93,27.67,27.67,0,0,0,8.88,4.31,38.86,38.86,0,0,0,11,1.49,40.49,40.49,0,0,0,8.68-.9,33.79,33.79,0,0,0,7.5-2.54v.51c0,.11,0,.4,0,.87a9.4,9.4,0,0,0,.25,1.69,10.29,10.29,0,0,0,.76,2.11,8.31,8.31,0,0,0,1.49,2.14,8.92,8.92,0,0,0,6.76,2.59h2.14v-7.89Z" transform="translate(-567 -274)"/><path class="cls-1" d="M697,442.41l-7-11.5a15.14,15.14,0,0,0,7.44-4.12,10.1,10.1,0,0,0,1.66-11,10.28,10.28,0,0,0-2.87-3.64,14.73,14.73,0,0,0-4.93-2.57,23.39,23.39,0,0,0-7.1-1H658.2v7.55h6.6v7.95h-4v7.55h4v10.71h-6.6V450h21.53v-7.55h-6.54V431.86h8.06l11,18.1h13.64v-7.55Zm-23.79-26.22h10.37q.34,0,1.61.08a15.07,15.07,0,0,1,2.71.45,8.15,8.15,0,0,1,2.56,1.13,2.41,2.41,0,0,1,1.13,2.11,2.7,2.7,0,0,1-.62,1.8,5.11,5.11,0,0,1-1.52,1.21,8.22,8.22,0,0,1-2,.73q-1.07.25-2,.39a20.82,20.82,0,0,1-2.17.2H673.19v-8.12Z" transform="translate(-567 -274)"/><polygon class="cls-1" points="169.1 142.19 169.1 134.63 147.57 134.63 147.57 142.19 154.11 142.19 154.11 168.41 147.57 168.41 147.57 175.96 169.1 175.96 169.1 168.41 162.51 168.41 162.51 142.19 169.1 142.19 169.1 142.19"/><polygon class="cls-1" points="214.71 162.54 214.71 168.41 194.02 168.41 194.02 142.19 200.56 142.19 200.56 134.63 178.97 134.63 178.97 142.19 185.62 142.19 185.62 168.41 178.97 168.41 178.97 175.96 222.82 175.96 222.82 162.54 214.71 162.54 214.71 162.54"/><polygon class="cls-1" points="268.15 162.54 268.15 168.41 247.46 168.41 247.46 142.19 254 142.19 254 134.63 232.41 134.63 232.41 142.19 239.06 142.19 239.06 168.41 232.41 168.41 232.41 175.96 276.26 175.96 276.26 162.54 268.15 162.54 268.15 162.54"/><path class="cls-1" d="M682.58,469.87a10.49,10.49,0,0,0-3.08-3.3,18.2,18.2,0,0,0-5.42-2.54,29.38,29.38,0,0,0-8.41-1H641.91v7.55h6.54v26.22h-6.54v7.55h21.53v-7.55h-6.6v-7.33h9.21q1.58-.06,4.12-.39a22.53,22.53,0,0,0,5.11-1.32,18.53,18.53,0,0,0,4.83-2.76,10.72,10.72,0,0,0,3.39-4.76,10.84,10.84,0,0,0,.79-4.17,9.83,9.83,0,0,0-.06-1.07c0-.34-.08-.66-.11-1s-.13-.64-.17-.9a14.69,14.69,0,0,0-1.38-3.24Zm-18.57,12h-7.16V470.58h8.51q.56,0,2.17.11a19.82,19.82,0,0,1,3.33.54,11.6,11.6,0,0,1,3.19,1.3,3.45,3.45,0,0,1,1.75,2.4c0,.19.07.37.08.54a5,5,0,0,1,0,.54,4.24,4.24,0,0,1-1.44,3.27,9.3,9.3,0,0,1-3.18,1.78,15.43,15.43,0,0,1-3.66.73q-1.86.14-2.82.14Z" transform="translate(-567 -274)"/><path class="cls-1" d="M723.65,463v7.55h6.6V491.6a12.23,12.23,0,0,1-.17,1.78,3.92,3.92,0,0,1-1.21,2.14,8.5,8.5,0,0,1-3.33,1.8,21.34,21.34,0,0,1-6.45.76,28.1,28.1,0,0,1-3.75-.25,11.59,11.59,0,0,1-3.44-1,6.73,6.73,0,0,1-2.54-2,5.34,5.34,0,0,1-1-3.33v-21H715V463H693.43v7.55H700v21a11.4,11.4,0,0,0,5.17,10Q710.3,505,719.73,505a31.06,31.06,0,0,0,8-.93,17.93,17.93,0,0,0,5.93-2.68,12,12,0,0,0,3.73-4.26,12.15,12.15,0,0,0,1.3-5.67v-21h6.6V463Z" transform="translate(-567 -274)"/><path class="cls-1" d="M793.66,478.41a11,11,0,0,0,.79-3.89,12.06,12.06,0,0,0-.17-1.72,9.66,9.66,0,0,0-.7-2.34,10.4,10.4,0,0,0-4.43-4.85,17.64,17.64,0,0,0-4.45-1.78,28.5,28.5,0,0,0-6.37-.82H753.8v7.55h7.84v26.22H753.8v7.55h26.69a1.14,1.14,0,0,0,.37-.06,27.15,27.15,0,0,0,6.54-1.18,18,18,0,0,0,4.51-2.14,11.05,11.05,0,0,0,2.82-2.68,13.08,13.08,0,0,0,1.52-2.73,10.31,10.31,0,0,0,.65-2.34,12.87,12.87,0,0,0,.14-1.55,12.53,12.53,0,0,0-.23-2.2,8.21,8.21,0,0,0-.93-2.51,10.3,10.3,0,0,0-2-2.48,13.72,13.72,0,0,0-3.38-2.23,8.73,8.73,0,0,0,3.16-3.83ZM770,470.58h8.62a17.39,17.39,0,0,1,2.14.14,11.13,11.13,0,0,1,2.14.48,7.4,7.4,0,0,1,1.78.85,3,3,0,0,1,1.1,1.24,1.09,1.09,0,0,1,.08.31c0,.13,0,.2.08.2h-.06l.06.06v.28a.9.9,0,0,0,0,.23.94.94,0,0,1,0,.23v.31a2.41,2.41,0,0,1-.06.42,3,3,0,0,1-1.35,1.78,10.05,10.05,0,0,1-2.48,1.16,16.61,16.61,0,0,1-2.87.65,19,19,0,0,1-2.48.2H770v-8.51Zm0,26.22h0V486.64h7.16l1,0q.9,0,2.17.17a27.27,27.27,0,0,1,2.71.45,12.17,12.17,0,0,1,2.68.9,6.79,6.79,0,0,1,2.06,1.47,3.06,3.06,0,0,1,.82,2.17,2.93,2.93,0,0,1-.76,2,5.85,5.85,0,0,1-1.92,1.38,12.79,12.79,0,0,1-2.48.85q-1.33.31-2.48.48a18.36,18.36,0,0,1-1.92.2l-.82,0Z" transform="translate(-567 -274)"/><polygon class="cls-2" points="29.7 111.64 275.55 111.64 275.55 115.09 29.7 115.09 29.7 111.64 29.7 111.64"/><polygon class="cls-2" points="29.7 244.61 275.55 244.61 275.55 248.06 29.7 248.06 29.7 244.61 29.7 244.61"/></svg>