<svg xmlns="http://www.w3.org/2000/svg" width="19.97" height="15.69" viewBox="0 0 19.97 15.69">
  <defs>
    <style>
      .cls-1 {
        fill: #bd9e13;
        fill-rule: evenodd;
      }
    </style>
  </defs>
  <path id="иконка_почта" data-name="иконка почта" class="cls-1" d="M1253.42,7405.15a7.354,7.354,0,0,1-1.12.97c-1.86,1.26-3.73,2.53-5.55,3.85a6.131,6.131,0,0,1-3.31,1.53h-0.03a6.131,6.131,0,0,1-3.31-1.53c-1.82-1.33-3.69-2.59-5.54-3.85a6.217,6.217,0,0,1-1.13-.97V7414a1.793,1.793,0,0,0,1.78,1.79h16.42a1.8,1.8,0,0,0,1.79-1.79v-8.85Zm0-3.28a1.808,1.808,0,0,0-1.79-1.79h-16.42a1.808,1.808,0,0,0-1.78,2.03,4.331,4.331,0,0,0,1.92,2.81c1.73,1.21,3.48,2.41,5.21,3.63,0.72,0.5,1.95,1.53,2.85,1.53h0.03c0.9,0,2.13-1.03,2.85-1.53,1.73-1.22,3.48-2.42,5.22-3.63A4.022,4.022,0,0,0,1253.42,7401.87Z" transform="translate(-1233.44 -7400.09)"/>
</svg>
