<svg id="Слой_1" data-name="Слой 1" xmlns="http://www.w3.org/2000/svg" viewBox="0 0 44.01 51.01"><defs><style>.cls-1{fill:#383838;}.cls-2{fill:#e5e4e4;}</style></defs><title>insta</title><path class="cls-1" d="M1325,7503l-22-12.75v-25.51l22-12.75,22,12.75v25.51Z" transform="translate(-1303 -7451.99)"/><path class="cls-2" d="M1329.05,7469h-8.1a5,5,0,0,0-4.95,4.95v8.1a5,5,0,0,0,4.95,4.95h8.1a5,5,0,0,0,4.95-4.95v-8.1A5,5,0,0,0,1329.05,7469Zm3.41,13.05a3.42,3.42,0,0,1-3.41,3.41h-8.1a3.42,3.42,0,0,1-3.41-3.41v-8.1a3.41,3.41,0,0,1,3.41-3.42h8.1a3.41,3.41,0,0,1,3.41,3.42Z" transform="translate(-1303 -7451.99)"/><circle class="cls-2" cx="26.82" cy="21.2" r="1.18"/><path class="cls-2" d="M1325,7473.37a4.64,4.64,0,1,0,4.64,4.64A4.64,4.64,0,0,0,1325,7473.37Zm0,7.74a3.1,3.1,0,1,1,3.1-3.1A3.11,3.11,0,0,1,1325,7481.11Z" transform="translate(-1303 -7451.99)"/></svg>