<svg xmlns="http://www.w3.org/2000/svg" width="17.28" height="17.32" viewBox="0 0 17.28 17.32">
  <defs>
    <style>
      .cls-1 {
        fill: #bd9e13;
        fill-rule: evenodd;
      }
    </style>
  </defs>
  <path id="иконка_телефон" data-name="иконка телефон" class="cls-1" d="M1251.72,7369.72a0.715,0.715,0,0,0-.03-0.25,2.148,2.148,0,0,0-.94-0.65c-0.7-.4-1.41-0.78-2.1-1.18a2.5,2.5,0,0,0-1.09-.57c-0.75,0-1.84,2.22-2.51,2.22a2.6,2.6,0,0,1-1.05-.47,12.31,12.31,0,0,1-5.03-5.03,2.583,2.583,0,0,1-.47-1.06c0-.66,2.22-1.75,2.22-2.5a2.5,2.5,0,0,0-.57-1.09c-0.4-.69-0.78-1.4-1.18-2.1a2.148,2.148,0,0,0-.65-0.94,0.715,0.715,0,0,0-.25-0.03,5.247,5.247,0,0,0-1.71.38,3.158,3.158,0,0,0-1.3,1.49,4.668,4.668,0,0,0-.63,2.29,9.543,9.543,0,0,0,.85,3.22,11.435,11.435,0,0,0,1.02,2.15,20.655,20.655,0,0,0,5.89,5.89,11.435,11.435,0,0,0,2.15,1.02,9.543,9.543,0,0,0,3.22.85,4.668,4.668,0,0,0,2.29-.63,3.158,3.158,0,0,0,1.49-1.3A5.247,5.247,0,0,0,1251.72,7369.72Z" transform="translate(-1234.44 -7356.06)"/>
</svg>
