<svg xmlns="http://www.w3.org/2000/svg" width="39.937" height="52" viewBox="0 0 39.937 52">
  <defs>
    <style>
      .cls-1 {
        fill: #fff;
        fill-rule: evenodd;
      }
    </style>
  </defs>
  <path id="money_2" data-name="money 2" class="cls-1" d="M578.089,3355.09v-5.55l5.1-9.05a1,1,0,0,0,0-.99,0.986,0.986,0,0,0-.856-0.5h-24.9a1,1,0,0,0-.861,1.49l5.1,9.05v5.61c-10.254,5.51-11.749,19.34-11.7,27.21a7.219,7.219,0,0,0,5.7,7,75.662,75.662,0,0,0,13.507,1.61,0.547,0.547,0,0,0,.124.03c0.213,0,.421-0.01.633-0.01s0.419,0.01.632,0.01a0.555,0.555,0,0,0,.125-0.03,75.661,75.661,0,0,0,13.506-1.61,7.217,7.217,0,0,0,5.7-7C589.942,3374.47,588.441,3360.56,578.089,3355.09Zm-14.436-4.81h12.455v4.45H563.653v-4.45Zm16.973-9.28-4.1,7.28H563.238l-4.1-7.28h21.491Zm3.168,46.4a61.217,61.217,0,0,1-27.723,0,5.213,5.213,0,0,1-4.12-5.06c-0.045-7.49,1.334-20.72,10.969-25.61h14.025c9.636,4.89,11.014,18.12,10.969,25.61A5.213,5.213,0,0,1,583.794,3387.4Zm-12.069-15.37-0.1-.03v-6.31a7.333,7.333,0,0,1,3.43,1.33,0.986,0.986,0,0,0,1.391-.13,1.009,1.009,0,0,0-.126-1.41,9.238,9.238,0,0,0-4.7-1.8v-1.11a0.991,0.991,0,1,0-1.981,0v1.11a4.974,4.974,0,0,0-4.775,4.99c0,2.73,2.839,4.06,4.775,4.76v6.09a11.157,11.157,0,0,1-3.861-1.8,0.98,0.98,0,0,0-1.391.16,1,1,0,0,0,.16,1.4,13.025,13.025,0,0,0,5.092,2.27v1.61a0.991,0.991,0,1,0,1.981,0v-1.51c2.415-.25,5.328-1.73,5.328-4.69C576.953,3373.72,573.807,3372.71,571.725,3372.03Zm-4.875-3.36a2.933,2.933,0,0,1,2.794-2.97v5.58C568.112,3370.64,566.85,3369.83,566.85,3368.67Zm4.775,10.96v-5.52c1.981,0.66,3.347,1.33,3.347,2.85C574.972,3378.6,573.068,3379.42,571.625,3379.63Z" transform="translate(-549.969 -3339)"/>
</svg>
