<svg xmlns="http://www.w3.org/2000/svg" width="42" height="42" viewBox="0 0 42 42">
  <defs>
    <style>
      .cls-1 {
        fill: #bd9e13;
        fill-rule: evenodd;
      }
    </style>
  </defs>
  <path id="ok" class="cls-1" d="M412,4515a21,21,0,1,0,21,21A21.023,21.023,0,0,0,412,4515Zm0,40a19,19,0,1,1,19-19A19.019,19.019,0,0,1,412,4555Zm6.193-24.21-8.283,8.29-4.1-4.1a1,1,0,1,0-1.415,1.42l4.807,4.8a0.983,0.983,0,0,0,1.414,0l8.991-8.99A1,1,0,0,0,418.192,4530.79Z" transform="translate(-391 -4515)"/>
</svg>
