<svg id="Слой_1" data-name="Слой 1" xmlns="http://www.w3.org/2000/svg" viewBox="0 0 44.01 51.01"><defs><style>.cls-1{fill:#383838;}.cls-2{fill:#e5e4e4;}</style></defs><title>twitter</title><path class="cls-1" d="M1455,7503l-22-12.75v-25.51l22-12.75,22,12.75v25.51Z" transform="translate(-1433 -7451.99)"/><path class="cls-2" d="M1462.87,7472.67a5.78,5.78,0,0,1-1.66.45,2.88,2.88,0,0,0,1.27-1.59,5.67,5.67,0,0,1-1.83.7,2.89,2.89,0,0,0-5,2,3.26,3.26,0,0,0,.07.66,8.19,8.19,0,0,1-5.94-3,2.89,2.89,0,0,0,.89,3.86,2.9,2.9,0,0,1-1.3-.37v0a2.88,2.88,0,0,0,2.31,2.83,3,3,0,0,1-.76.1,3.65,3.65,0,0,1-.54,0,2.89,2.89,0,0,0,2.7,2,5.77,5.77,0,0,1-3.58,1.23,6,6,0,0,1-.7,0,8.21,8.21,0,0,0,12.63-6.91c0-.12,0-.25,0-.37A6.2,6.2,0,0,0,1462.87,7472.67Z" transform="translate(-1433 -7451.99)"/></svg>