<svg xmlns="http://www.w3.org/2000/svg" width="53.969" height="42" viewBox="0 0 53.969 42">
  <defs>
    <style>
      .cls-1 {
        fill: #fff;
        fill-rule: evenodd;
      }
    </style>
  </defs>
  <path id="money_3" data-name="money 3" class="cls-1" d="M986.976,3344H934.991a1,1,0,0,0-1,1v40a1,1,0,0,0,1,1h51.985a1,1,0,0,0,1-1v-40A1,1,0,0,0,986.976,3344Zm-44.925,2h37.868a7.123,7.123,0,0,0,6.053,6.03v15.72a7.123,7.123,0,0,0-6.053,6.03H942.051a7.125,7.125,0,0,0-6.056-6.03v-15.72A7.125,7.125,0,0,0,942.051,3346Zm43.921,23.77v4.01h-4.023A5.124,5.124,0,0,1,985.972,3369.77Zm-49.977,0a5.126,5.126,0,0,1,4.026,4.01H936v-4.01Zm0,6.01h49.977v3.11H936v-3.11Zm49.977-25.77a5.125,5.125,0,0,1-4.023-4.01h4.023v4.01ZM940.021,3346a5.126,5.126,0,0,1-4.026,4.01V3346h4.026Zm45.951,38H936v-3.11h49.977V3384Zm-25.938-17.27v1.04a1,1,0,0,0,2.008,0v-0.95c1.922-.26,4.132-1.47,4.132-3.79,0-2.61-2.547-3.47-4.132-3.97v-4.38a5.468,5.468,0,0,1,2.277.92,1,1,0,0,0,1.279-1.54,7.43,7.43,0,0,0-3.556-1.42v-0.63a1,1,0,0,0-2.008,0v0.65a4.012,4.012,0,0,0-3.7,4.02c0,2.17,2.153,3.23,3.7,3.81v4.18a8.292,8.292,0,0,1-2.614-1.25,1,1,0,1,0-1.247,1.57A10.635,10.635,0,0,0,960.034,3366.73Zm4.133-3.7c0,1.01-1.139,1.56-2.125,1.76v-3.62C963.314,3361.61,964.167,3362.08,964.167,3363.03Zm-5.829-6.35a1.966,1.966,0,0,1,1.7-1.98v3.62C959.1,3357.89,958.338,3357.36,958.338,3356.68Z" transform="translate(-934 -3344)"/>
</svg>
