<svg xmlns="http://www.w3.org/2000/svg" width="12.125" height="9.28" viewBox="0 0 12.125 9.28">
  <defs>
    <style>
      .cls-1 {
        fill: #bd9e13;
        fill-rule: evenodd;
      }
    </style>
  </defs>
  <path id="_" data-name="" class="cls-1" d="M413.237,1854.25a0.744,0.744,0,0,0-.219-0.53l-1.062-1.06a0.752,0.752,0,0,0-1.063,0l-5.125,5.13-2.3-2.31a0.776,0.776,0,0,0-1.062,0l-1.063,1.07a0.747,0.747,0,0,0-.218.53,0.765,0.765,0,0,0,.218.53l2.828,2.83,1.063,1.06a0.751,0.751,0,0,0,1.062,0l1.063-1.06,5.656-5.66A0.744,0.744,0,0,0,413.237,1854.25Z" transform="translate(-401.125 -1852.44)"/>
</svg>
