<svg xmlns="http://www.w3.org/2000/svg" width="17.38" height="16.53" viewBox="0 0 17.38 16.53">
  <defs>
    <style>
      .cls-1 {
        fill: #ccc;
        fill-rule: evenodd;
      }
    </style>
  </defs>
  <path id="download" class="cls-1" d="M1077.68,4077.47a1.48,1.48,0,0,0-.41-1.02l-0.84-.83a1.447,1.447,0,0,0-1.01-.42,1.406,1.406,0,0,0-1,.42l-3.28,3.28v-7.86a1.443,1.443,0,0,0-1.43-1.43h-1.43a1.443,1.443,0,0,0-1.43,1.43v7.86l-3.28-3.28a1.406,1.406,0,0,0-1-.42,1.49,1.49,0,0,0-1.02.42l-0.82.83a1.446,1.446,0,0,0-.42,1.02,1.383,1.383,0,0,0,.42,1l7.26,7.27a1.442,1.442,0,0,0,1,.42,1.49,1.49,0,0,0,1.02-.42l7.26-7.27A1.415,1.415,0,0,0,1077.68,4077.47Z" transform="translate(-1060.31 -4069.63)"/>
</svg>
