<svg xmlns="http://www.w3.org/2000/svg" width="46.46" height="52" viewBox="0 0 46.46 52">
  <defs>
    <style>
      .cls-1 {
        fill: #fff;
        fill-rule: evenodd;
      }
    </style>
  </defs>
  <path id="money_4" data-name="money 4" class="cls-1" d="M1371.79,3372.43a4.5,4.5,0,0,0-6.29.4l-3.94,4.41a4.967,4.967,0,0,0,.2-1.29,4.641,4.641,0,0,0-4.62-4.65h-7.55a6.9,6.9,0,0,1-2.13-.69c-2.72-1.16-7.22-3.05-14.4.36v-0.26a0.994,0.994,0,0,0-.99-1h-4.22a0.988,0.988,0,0,0-.99,1V3390a0.994,0.994,0,0,0,.99,1h4.22a1,1,0,0,0,.99-1v-1.05h22.24a1.259,1.259,0,0,0,.27-0.04l10.49-3.02a0.956,0.956,0,0,0,.48-0.31l5.72-6.73A4.594,4.594,0,0,0,1371.79,3372.43Zm-42.95-.72h2.24V3389h-2.24v-17.29Zm41.92,5.83-5.53,6.51-10.07,2.9h-22.1v-13.77c6.9-3.59,10.79-1.93,13.64-.73a7.914,7.914,0,0,0,2.89.85h7.55a2.655,2.655,0,0,1,0,5.31h-8.75a1,1,0,0,0,0,2h12.38a0.979,0.979,0,0,0,.73-0.33l5.47-6.11a2.518,2.518,0,0,1,3.53-.22A2.566,2.566,0,0,1,1370.76,3377.54Zm-17.26-21.69a6.615,6.615,0,1,0,6.55,6.61A6.592,6.592,0,0,0,1353.5,3355.85Zm0,11.23a4.615,4.615,0,1,1,4.57-4.62A4.6,4.6,0,0,1,1353.5,3367.08Zm10.53-9.23a6.615,6.615,0,1,0-6.55-6.62A6.594,6.594,0,0,0,1364.03,3357.85Zm0-11.23a4.615,4.615,0,1,1-4.57,4.61A4.6,4.6,0,0,1,1364.03,3346.62Zm-15.18,5.61a6.615,6.615,0,1,0-6.55-6.61A6.585,6.585,0,0,0,1348.85,3352.23Zm0-11.23a4.615,4.615,0,1,1-4.57,4.62A4.6,4.6,0,0,1,1348.85,3341Z" transform="translate(-1326.88 -3339)"/>
</svg>
