<svg id="Слой_1" data-name="Слой 1" xmlns="http://www.w3.org/2000/svg" viewBox="0 0 44.01 51.01"><defs><style>.cls-1{fill:#383838;}.cls-2{fill:#e5e4e4;}</style></defs><title>vk</title><path class="cls-1" d="M1260,7503l-22-12.75v-25.51l22-12.75,22,12.75v25.51Z" transform="translate(-1238 -7451.99)"/><path class="cls-2" d="M1268.24,7473.67s-.12-.36-.9-.26l-2.57,0a.58.58,0,0,0-.34.05.53.53,0,0,0-.22.28,16.47,16.47,0,0,1-1,2c-1.14,1.95-1.61,2.05-1.79,1.93-.44-.28-.32-1.12-.32-1.73,0-1.89.29-2.68-.56-2.88a4.73,4.73,0,0,0-1.21-.12,5.58,5.58,0,0,0-2.13.21c-.29.14-.52.46-.38.48a1.19,1.19,0,0,1,.76.38,2.64,2.64,0,0,1,.26,1.17c.1,2.22-.36,2.5-.36,2.5-.35.19-1-.12-1.85-2a17.9,17.9,0,0,1-.92-1.91.66.66,0,0,0-.21-.29.93.93,0,0,0-.39-.16l-2.45,0a.64.64,0,0,0-.51.17s-.13.14,0,.44a23.69,23.69,0,0,0,4.09,6.74s2,2.08,4.25,1.94h1a.77.77,0,0,0,.47-.2.68.68,0,0,0,.13-.46c0-1.37.62-1.58.62-1.58.62-.2,1.43,1.33,2.29,1.92a1.9,1.9,0,0,0,1.14.35l2.29,0c1.21,0,.63-1,.63-1a7.55,7.55,0,0,0-1.71-2c-1.43-1.33-1.24-1.12.49-3.42C1268,7474.9,1268.37,7474,1268.24,7473.67Z" transform="translate(-1238 -7451.99)"/></svg>